<svg height="384pt" viewBox="0 0 384 384" width="384pt" xmlns="http://www.w3.org/2000/svg"><path d="m16 16h64v64h-64zm0 0" fill="#4dd0e1"/><path d="m16 304h64v64h-64zm0 0" fill="#e0f7fa"/><path d="m16 160h64v64h-64zm0 0" fill="#ff7043"/><g fill="#012e52"><path d="m80 0h-64c-8.832031 0-16 7.167969-16 16v64c0 8.832031 7.167969 16 16 16h64c8.832031 0 16-7.167969 16-16v-64c0-8.832031-7.167969-16-16-16zm-16 64h-32v-32h32zm0 0"/><path d="m80 144h-64c-8.832031 0-16 7.167969-16 16v64c0 8.832031 7.167969 16 16 16h64c8.832031 0 16-7.167969 16-16v-64c0-8.832031-7.167969-16-16-16zm-16 64h-32v-32h32zm0 0"/><path d="m80 288h-64c-8.832031 0-16 7.167969-16 16v64c0 8.832031 7.167969 16 16 16h64c8.832031 0 16-7.167969 16-16v-64c0-8.832031-7.167969-16-16-16zm-16 64h-32v-32h32zm0 0"/><path d="m288 320h-144c-8.832031 0-16 7.167969-16 16s7.167969 16 16 16h144c8.832031 0 16-7.167969 16-16s-7.167969-16-16-16zm0 0"/><path d="m368 320h-16c-8.832031 0-16 7.167969-16 16s7.167969 16 16 16h16c8.832031 0 16-7.167969 16-16s-7.167969-16-16-16zm0 0"/><path d="m368 32h-240c-8.832031 0-16 7.167969-16 16s7.167969 16 16 16h240c8.832031 0 16-7.167969 16-16s-7.167969-16-16-16zm0 0"/><path d="m368 176h-224c-8.832031 0-16 7.167969-16 16s7.167969 16 16 16h224c8.832031 0 16-7.167969 16-16s-7.167969-16-16-16zm0 0"/></g></svg>