<svg xmlns="http://www.w3.org/2000/svg" viewBox="0 0 384 384" width="384" height="384">
	<style>
		tspan { white-space:pre }
		.shp0 { fill: #4dd0e1 } 
		.shp1 { fill: #e0f7fa } 
		.shp2 { fill: #ff7043 } 
		.shp3 { fill: #012e52 } 
	</style>
	<path id="Layer" class="shp0" d="M306,16h64v64h-64z" />
	<path id="Layer" class="shp1" d="M306,304h64v64h-64z" />
	<path id="Layer" class="shp2" d="M306,160h64v64h-64z" />
	<g id="Layer">
		<path id="Layer" class="shp3" d="M304,0h64c8.83,0 16,7.17 16,16v64c0,8.83 -7.17,16 -16,16h-64c-8.83,0 -16,-7.17 -16,-16v-64c0,-8.83 7.17,-16 16,-16zM320,64h32v-32h-32z" />
		<path id="Layer" class="shp3" d="M304,144h64c8.83,0 16,7.17 16,16v64c0,8.83 -7.17,16 -16,16h-64c-8.83,0 -16,-7.17 -16,-16v-64c0,-8.83 7.17,-16 16,-16zM320,208h32v-32h-32z" />
		<path id="Layer" class="shp3" d="M304,288h64c8.83,0 16,7.17 16,16v64c0,8.83 -7.17,16 -16,16h-64c-8.83,0 -16,-7.17 -16,-16v-64c0,-8.83 7.17,-16 16,-16zM320,352h32v-32h-32z" />
		<path id="Layer" class="shp3" d="M96,320h144c8.83,0 16,7.17 16,16c0,8.83 -7.17,16 -16,16h-144c-8.83,0 -16,-7.17 -16,-16c0,-8.83 7.17,-16 16,-16z" />
		<path id="Layer" class="shp3" d="M16,320h16c8.83,0 16,7.17 16,16c0,8.83 -7.17,16 -16,16h-16c-8.83,0 -16,-7.17 -16,-16c0,-8.83 7.17,-16 16,-16z" />
		<path id="Layer" class="shp3" d="M16,32h240c8.83,0 16,7.17 16,16c0,8.83 -7.17,16 -16,16h-240c-8.83,0 -16,-7.17 -16,-16c0,-8.83 7.17,-16 16,-16z" />
		<path id="Layer" class="shp3" d="M16,176h224c8.83,0 16,7.17 16,16c0,8.83 -7.17,16 -16,16h-224c-8.83,0 -16,-7.17 -16,-16c0,-8.83 7.17,-16 16,-16z" />
	</g>
</svg>